<svg width="100" height="100" viewBox="0 0 100 100" fill="none" xmlns="http://www.w3.org/2000/svg">
<path d="M19.5882 48.1161L15.3763 49.5674L19.5882 51.0187V53.3912L12.5 50.8087V48.3242L19.5882 45.7416V48.1161Z" fill="#E85E28"/>
<path d="M24.3827 42.7H27.1624L22.576 55.8487H19.7963L24.3827 42.7Z" fill="#E85E28"/>
<path d="M26.5927 49.5674C26.5927 46.5668 28.8864 44.4584 32.0136 44.4584C33.9179 44.4584 35.4188 45.1565 36.3779 46.4128L34.3073 48.2692C33.7376 47.543 33.0564 47.1249 32.181 47.1249C30.8185 47.1249 29.9012 48.0741 29.9012 49.5674C29.9012 51.0607 30.8185 52.0099 32.181 52.0099C33.0564 52.0099 33.7376 51.5908 34.3073 50.8657L36.3779 52.7221C35.4188 53.9783 33.9179 54.6765 32.0136 54.6765C28.8864 54.6765 26.5927 52.569 26.5927 49.5674Z" fill="#F3F0E6"/>
<path d="M36.6139 50.6286C36.6139 48.3112 38.4624 46.6778 41.034 46.6778C43.6055 46.6778 45.454 48.3112 45.454 50.6286C45.454 52.9461 43.6194 54.5925 41.034 54.5925C38.4485 54.5925 36.6139 52.9451 36.6139 50.6286ZM42.2709 50.6286C42.2709 49.6374 41.7291 49.1353 41.034 49.1353C40.3388 49.1353 39.797 49.6374 39.797 50.6286C39.797 51.6198 40.3388 52.136 41.034 52.136C41.7291 52.136 42.2709 51.6198 42.2709 50.6286Z" fill="#F3F0E6"/>
<path d="M54.8508 44.0963V54.4534H51.8629V53.8253C51.4038 54.3414 50.7236 54.5935 49.7784 54.5935C47.7905 54.5935 46.1093 53.0862 46.1093 50.6296C46.1093 48.1731 47.7915 46.6788 49.7784 46.6788C50.612 46.6788 51.2514 46.8879 51.7105 47.335V44.0963H54.8508ZM51.7643 50.6286C51.7643 49.6374 51.2225 49.1353 50.5274 49.1353C49.8322 49.1353 49.2904 49.6374 49.2904 50.6286C49.2904 51.6198 49.8322 52.136 50.5274 52.136C51.2225 52.136 51.7643 51.6198 51.7643 50.6286Z" fill="#F3F0E6"/>
<path d="M61.689 46.6788V49.4704C61.4111 49.4284 61.2159 49.4144 60.9938 49.4144C60.0486 49.4144 59.3813 49.8475 59.3813 51.0617V54.4534H56.2401V46.8179H59.228V47.641C59.7837 46.9989 60.6323 46.6778 61.688 46.6778L61.689 46.6788Z" fill="#F3F0E6"/>
<path d="M71.2511 46.8179L68.1238 54.6065C67.2902 56.6999 66.0672 57.3 64.4547 57.3C63.6211 57.3 62.662 57.035 62.1471 56.6159L63.1899 54.4524C63.4956 54.6895 63.9269 54.8575 64.3023 54.8575C64.6778 54.8575 64.9138 54.7455 65.0812 54.5504L61.8842 46.8179H65.1091L66.6797 50.9077L68.2782 46.8179H71.2531H71.2511Z" fill="#F3F0E6"/>
<path d="M78.9796 50.3496V54.4534H76.0605V53.4482C75.699 54.2164 74.9759 54.5925 73.9063 54.5925C72.0439 54.5925 71.0848 53.5312 71.0848 52.22C71.0848 50.7407 72.1972 49.9165 74.5596 49.9165H75.8245C75.7269 49.3304 75.2827 49.0233 74.3933 49.0233C73.7121 49.0233 72.9482 49.2464 72.4472 49.6234L71.4463 47.544C72.3357 46.9859 73.6842 46.6788 74.8654 46.6788C77.4787 46.6788 78.9796 47.8091 78.9796 50.3496ZM75.8384 51.9689V51.4388H75.0596C74.3923 51.4388 74.1005 51.6619 74.1005 52.0809C74.1005 52.43 74.3784 52.6951 74.8514 52.6951C75.2827 52.6951 75.6711 52.472 75.8384 51.9689Z" fill="#F3F0E6"/>
<path d="M87.5 48.3252V50.8097L80.4118 53.3922V51.0197L84.6237 49.5684L80.4118 48.1171V45.7446L87.5 48.3272V48.3252Z" fill="#E85E28"/>
</svg>
